REM DIRINDEX 1\2,1\3,1\4
REM DIRNAME folder01,folder02,folder03,folder04
TITLE ""
FILE "Track20.mp3" MP3
  TRACK 01 AUDIO
    TITLE "0:"
    INDEX 01 00:00:00
  TRACK 02 AUDIO
    TITLE "4:cjc153_1222"
    INDEX 01 00:00:07
  TRACK 03 AUDIO
    TITLE "0:"
    INDEX 01 00:01:66
  TRACK 04 AUDIO
    TITLE "2:cjc153_1223"
    INDEX 01 00:02:49
  TRACK 05 AUDIO
    TITLE "0:"
    INDEX 01 00:03:59
  TRACK 06 AUDIO
    TITLE "3:cjc153_1224"
    INDEX 01 00:04:17
  TRACK 07 AUDIO
    TITLE "0:"
    INDEX 01 00:05:32
  TRACK 08 AUDIO
    TITLE "2:cjc153_1225"
    INDEX 01 00:06:02
  TRACK 09 AUDIO
    TITLE "0:"
    INDEX 01 00:07:07
  TRACK 10 AUDIO
    TITLE "3:cjc153_1226"
    INDEX 01 00:07:31
  TRACK 11 AUDIO
    TITLE "0:"
    INDEX 01 00:08:40
  TRACK 12 AUDIO
    TITLE "2:cjc153_1227"
    INDEX 01 00:09:10
  TRACK 13 AUDIO
    TITLE "0:"
    INDEX 01 00:10:12
  TRACK 14 AUDIO
    TITLE "3:cjc153_1228"
    INDEX 01 00:10:45
  TRACK 15 AUDIO
    TITLE "0:"
    INDEX 01 00:11:52
  TRACK 16 AUDIO
    TITLE "2:cjc153_1229"
    INDEX 01 00:12:20
  TRACK 17 AUDIO
    TITLE "0:"
    INDEX 01 00:13:18
  TRACK 18 AUDIO
    TITLE "3:cjc153_1230"
    INDEX 01 00:13:53
  TRACK 19 AUDIO
    TITLE "0:"
    INDEX 01 00:14:64
  TRACK 20 AUDIO
    TITLE "2:cjc153_1231"
    INDEX 01 00:15:32
  TRACK 21 AUDIO
    TITLE "0:"
    INDEX 01 00:16:36
  TRACK 22 AUDIO
    TITLE "3:cjc153_1232"
    INDEX 01 00:16:67
  TRACK 23 AUDIO
    TITLE "0:"
    INDEX 01 00:17:74
  TRACK 24 AUDIO
    TITLE "2:cjc153_1233"
    INDEX 01 00:18:44
  TRACK 25 AUDIO
    TITLE "0:"
    INDEX 01 00:19:38
  TRACK 26 AUDIO
    TITLE "3:cjc153_1234"
    INDEX 01 00:19:73
  TRACK 27 AUDIO
    TITLE "0:"
    INDEX 01 00:21:06
  TRACK 28 AUDIO
    TITLE "2:cjc153_1235"
    INDEX 01 00:21:53
  TRACK 29 AUDIO
    TITLE "0:"
    INDEX 01 00:22:62
  TRACK 30 AUDIO
    TITLE "3:cjc153_1236"
    INDEX 01 00:23:20
  TRACK 31 AUDIO
    TITLE "0:"
    INDEX 01 00:24:33
  TRACK 32 AUDIO
    TITLE "2:cjc153_1237"
    INDEX 01 00:25:03
  TRACK 33 AUDIO
    TITLE "0:"
    INDEX 01 00:25:74
  TRACK 34 AUDIO
    TITLE "3:cjc153_1238"
    INDEX 01 00:26:34
  TRACK 35 AUDIO
    TITLE "0:"
    INDEX 01 00:27:36
  TRACK 36 AUDIO
    TITLE "2:cjc153_1239"
    INDEX 01 00:28:06
  TRACK 37 AUDIO
    TITLE "0:"
    INDEX 01 00:29:09
  TRACK 38 AUDIO
    TITLE "3:cjc153_1240"
    INDEX 01 00:29:42
  TRACK 39 AUDIO
    TITLE "0:"
    INDEX 01 00:30:48
  TRACK 40 AUDIO
    TITLE "2:cjc153_1241"
    INDEX 01 00:31:18
  TRACK 41 AUDIO
    TITLE "0:"
    INDEX 01 00:32:15
  TRACK 42 AUDIO
    TITLE "3:cjc153_1242"
    INDEX 01 00:32:41
  TRACK 43 AUDIO
    TITLE "0:"
    INDEX 01 00:33:38
  TRACK 44 AUDIO
    TITLE "2:cjc153_1243"
    INDEX 01 00:34:14
  TRACK 45 AUDIO
    TITLE "0:"
    INDEX 01 00:35:19
  TRACK 46 AUDIO
    TITLE "3:cjc153_1244"
    INDEX 01 00:35:51
  TRACK 47 AUDIO
    TITLE "0:"
    INDEX 01 00:36:60
  TRACK 48 AUDIO
    TITLE "2:cjc153_1245"
    INDEX 01 00:37:30
  TRACK 49 AUDIO
    TITLE "0:"
    INDEX 01 00:38:37
  TRACK 50 AUDIO
    TITLE "3:cjc153_1246"
    INDEX 01 00:38:67
  TRACK 51 AUDIO
    TITLE "0:"
    INDEX 01 00:39:74
  TRACK 52 AUDIO
    TITLE "2:cjc153_1247"
    INDEX 01 00:40:46
  TRACK 53 AUDIO
    TITLE "0:"
    INDEX 01 00:41:42
  TRACK 54 AUDIO
    TITLE "3:cjc153_1248"
    INDEX 01 00:42:00
  TRACK 55 AUDIO
    TITLE "0:"
    INDEX 01 00:43:03
  TRACK 56 AUDIO
    TITLE "2:cjc153_1249"
    INDEX 01 00:43:44
  TRACK 57 AUDIO
    TITLE "0:"
    INDEX 01 00:44:54
  TRACK 58 AUDIO
    TITLE "3:cjc153_1250"
    INDEX 01 00:45:12
  TRACK 59 AUDIO
    TITLE "0:"
    INDEX 01 00:46:35
  TRACK 60 AUDIO
    TITLE "2:cjc153_1251"
    INDEX 01 00:47:05
  TRACK 61 AUDIO
    TITLE "0:"
    INDEX 01 00:48:02
  TRACK 62 AUDIO
    TITLE "3:cjc153_1252"
    INDEX 01 00:48:36
  TRACK 63 AUDIO
    TITLE "0:"
    INDEX 01 00:49:35
  TRACK 64 AUDIO
    TITLE "2:cjc153_1253"
    INDEX 01 00:50:05
  TRACK 65 AUDIO
    TITLE "0:"
    INDEX 01 00:51:09
  TRACK 66 AUDIO
    TITLE "3:cjc153_1254"
    INDEX 01 00:51:42
  TRACK 67 AUDIO
    TITLE "0:"
    INDEX 01 00:52:51
  TRACK 68 AUDIO
    TITLE "2:cjc153_1255"
    INDEX 01 00:53:23
  TRACK 69 AUDIO
    TITLE "0:"
    INDEX 01 00:54:21
  TRACK 70 AUDIO
    TITLE "3:cjc153_1256"
    INDEX 01 00:54:52
  TRACK 71 AUDIO
    TITLE "0:"
    INDEX 01 00:55:53
  TRACK 72 AUDIO
    TITLE "2:cjc153_1257"
    INDEX 01 00:56:24
  TRACK 73 AUDIO
    TITLE "0:"
    INDEX 01 00:57:23
  TRACK 74 AUDIO
    TITLE "3:cjc153_1258"
    INDEX 01 00:57:58
  TRACK 75 AUDIO
    TITLE "0:"
    INDEX 01 00:58:62
  TRACK 76 AUDIO
    TITLE "2:cjc153_1259"
    INDEX 01 00:59:36
  TRACK 77 AUDIO
    TITLE "0:"
    INDEX 01 01:00:27
  TRACK 78 AUDIO
    TITLE "3:cjc153_1260"
    INDEX 01 01:00:60
  TRACK 79 AUDIO
    TITLE "0:"
    INDEX 01 01:01:56
  TRACK 80 AUDIO
    TITLE "2:cjc153_1261"
    INDEX 01 01:02:26
  TRACK 81 AUDIO
    TITLE "0:"
    INDEX 01 01:03:27
  TRACK 82 AUDIO
    TITLE "3:cjc153_1262"
    INDEX 01 01:03:61
  TRACK 83 AUDIO
    TITLE "0:"
    INDEX 01 01:04:64
